<svg viewBox="0 0 330 200" xmlns="http://www.w3.org/2000/svg"><g><g><g><g><g><line x1="51.125" y1="174" x2="46.125" y2="174" style="visibility: inherit;" fill="rgb(0, 0, 0)" stroke="rgb(204, 204, 204)" stroke-width="1px"></line><line x1="51.125" y1="154.66666666666666" x2="46.125" y2="154.66666666666666" style="visibility: inherit;" fill="rgb(0, 0, 0)" stroke="rgb(204, 204, 204)" stroke-width="1px"></line><line x1="51.125" y1="135.33333333333334" x2="46.125" y2="135.33333333333334" style="visibility: inherit;" fill="rgb(0, 0, 0)" stroke="rgb(204, 204, 204)" stroke-width="1px"></line><line x1="51.125" y1="116.00000000000001" x2="46.125" y2="116.00000000000001" style="visibility: inherit;" fill="rgb(0, 0, 0)" stroke="rgb(204, 204, 204)" stroke-width="1px"></line><line x1="51.125" y1="96.66666666666667" x2="46.125" y2="96.66666666666667" style="visibility: inherit;" fill="rgb(0, 0, 0)" stroke="rgb(204, 204, 204)" stroke-width="1px"></line><line x1="51.125" y1="77.33333333333333" x2="46.125" y2="77.33333333333333" style="visibility: inherit;" fill="rgb(0, 0, 0)" stroke="rgb(204, 204, 204)" stroke-width="1px"></line><line x1="51.125" y1="58.00000000000001" x2="46.125" y2="58.00000000000001" style="visibility: inherit;" fill="rgb(0, 0, 0)" stroke="rgb(204, 204, 204)" stroke-width="1px"></line><line x1="51.125" y1="38.66666666666664" x2="46.125" y2="38.66666666666664" style="visibility: inherit;" fill="rgb(0, 0, 0)" stroke="rgb(204, 204, 204)" stroke-width="1px"></line><line x1="51.125" y1="19.33333333333332" x2="46.125" y2="19.33333333333332" style="visibility: inherit;" fill="rgb(0, 0, 0)" stroke="rgb(204, 204, 204)" stroke-width="1px"></line><line x1="51.125" y1="0" x2="46.125" y2="0" style="visibility: inherit;" fill="rgb(0, 0, 0)" stroke="rgb(204, 204, 204)" stroke-width="1px"></line></g><g transform="translate(41.125, 0)"><text x="0" y="174" dx="0em" dy="0.3em" style="text-anchor: end; visibility: hidden; font-family: Roboto, sans-serif; font-size: 12px; font-weight: 200;" fill="rgb(33, 33, 33)" stroke="none" stroke-width="1px">0</text><text x="0" y="154.66666666666666" dx="0em" dy="0.3em" style="text-anchor: end; visibility: inherit; font-family: Roboto, sans-serif; font-size: 12px; font-weight: 200;" fill="rgb(33, 33, 33)" stroke="none" stroke-width="1px">0.01</text><text x="0" y="135.33333333333334" dx="0em" dy="0.3em" style="text-anchor: end; visibility: hidden; font-family: Roboto, sans-serif; font-size: 12px; font-weight: 200;" fill="rgb(33, 33, 33)" stroke="none" stroke-width="1px">0.02</text><text x="0" y="116.00000000000001" dx="0em" dy="0.3em" style="text-anchor: end; visibility: inherit; font-family: Roboto, sans-serif; font-size: 12px; font-weight: 200;" fill="rgb(33, 33, 33)" stroke="none" stroke-width="1px">0.03</text><text x="0" y="96.66666666666667" dx="0em" dy="0.3em" style="text-anchor: end; visibility: hidden; font-family: Roboto, sans-serif; font-size: 12px; font-weight: 200;" fill="rgb(33, 33, 33)" stroke="none" stroke-width="1px">0.04</text><text x="0" y="77.33333333333333" dx="0em" dy="0.3em" style="text-anchor: end; visibility: inherit; font-family: Roboto, sans-serif; font-size: 12px; font-weight: 200;" fill="rgb(33, 33, 33)" stroke="none" stroke-width="1px">0.05</text><text x="0" y="58.00000000000001" dx="0em" dy="0.3em" style="text-anchor: end; visibility: hidden; font-family: Roboto, sans-serif; font-size: 12px; font-weight: 200;" fill="rgb(33, 33, 33)" stroke="none" stroke-width="1px">0.06</text><text x="0" y="38.66666666666664" dx="0em" dy="0.3em" style="text-anchor: end; visibility: inherit; font-family: Roboto, sans-serif; font-size: 12px; font-weight: 200;" fill="rgb(33, 33, 33)" stroke="none" stroke-width="1px">0.07</text><text x="0" y="19.33333333333332" dx="0em" dy="0.3em" style="text-anchor: end; visibility: hidden; font-family: Roboto, sans-serif; font-size: 12px; font-weight: 200;" fill="rgb(33, 33, 33)" stroke="none" stroke-width="1px">0.08</text><text x="0" y="0" dx="0em" dy="0.3em" style="text-anchor: end; visibility: hidden; font-family: Roboto, sans-serif; font-size: 12px; font-weight: 200;" fill="rgb(33, 33, 33)" stroke="none" stroke-width="1px">0.09</text></g><line x1="51.125" y1="0" x2="51.125" y2="174" fill="rgb(0, 0, 0)" stroke="rgb(204, 204, 204)" stroke-width="1px"></line></g></g><g transform="translate(51, 0)" clip-path="url(#clip_0)"><clipPath id="clip_0"><rect width="278" height="174"></rect></clipPath><g><g><g><line x1="0" y1="0" x2="0" y2="174" fill="rgb(0, 0, 0)" stroke="rgb(66, 66, 66)" stroke-width="1px" opacity="0.25"></line><line x1="27.887500000000003" y1="0" x2="27.887500000000003" y2="174" fill="rgb(0, 0, 0)" stroke="rgb(66, 66, 66)" stroke-width="1px" opacity="0.25"></line><line x1="55.775000000000006" y1="0" x2="55.775000000000006" y2="174" fill="rgb(0, 0, 0)" stroke="rgb(66, 66, 66)" stroke-width="1px" opacity="0.25"></line><line x1="83.6625" y1="0" x2="83.6625" y2="174" fill="rgb(0, 0, 0)" stroke="rgb(66, 66, 66)" stroke-width="1px" opacity="0.25"></line><line x1="111.55000000000001" y1="0" x2="111.55000000000001" y2="174" fill="rgb(0, 0, 0)" stroke="rgb(66, 66, 66)" stroke-width="1px" opacity="0.25"></line><line x1="139.4375" y1="0" x2="139.4375" y2="174" fill="rgb(0, 0, 0)" stroke="rgb(66, 66, 66)" stroke-width="1px" opacity="0.25"></line><line x1="167.325" y1="0" x2="167.325" y2="174" fill="rgb(0, 0, 0)" stroke="rgb(66, 66, 66)" stroke-width="1px" opacity="0.25"></line><line x1="195.21249999999998" y1="0" x2="195.21249999999998" y2="174" fill="rgb(0, 0, 0)" stroke="rgb(66, 66, 66)" stroke-width="1px" opacity="0.25"></line><line x1="223.10000000000002" y1="0" x2="223.10000000000002" y2="174" fill="rgb(0, 0, 0)" stroke="rgb(66, 66, 66)" stroke-width="1px" opacity="0.25"></line><line x1="250.9875" y1="0" x2="250.9875" y2="174" fill="rgb(0, 0, 0)" stroke="rgb(66, 66, 66)" stroke-width="1px" opacity="0.25"></line><line x1="278.875" y1="0" x2="278.875" y2="174" fill="rgb(0, 0, 0)" stroke="rgb(66, 66, 66)" stroke-width="1px" opacity="0.25"></line></g><g><line x1="0" y1="174" x2="278.875" y2="174" fill="rgb(0, 0, 0)" stroke="rgb(66, 66, 66)" stroke-width="1px" opacity="0.25"></line><line x1="0" y1="154.66666666666666" x2="278.875" y2="154.66666666666666" fill="rgb(0, 0, 0)" stroke="rgb(66, 66, 66)" stroke-width="1px" opacity="0.25"></line><line x1="0" y1="135.33333333333334" x2="278.875" y2="135.33333333333334" fill="rgb(0, 0, 0)" stroke="rgb(66, 66, 66)" stroke-width="1px" opacity="0.25"></line><line x1="0" y1="116.00000000000001" x2="278.875" y2="116.00000000000001" fill="rgb(0, 0, 0)" stroke="rgb(66, 66, 66)" stroke-width="1px" opacity="0.25"></line><line x1="0" y1="96.66666666666667" x2="278.875" y2="96.66666666666667" fill="rgb(0, 0, 0)" stroke="rgb(66, 66, 66)" stroke-width="1px" opacity="0.25"></line><line x1="0" y1="77.33333333333333" x2="278.875" y2="77.33333333333333" fill="rgb(0, 0, 0)" stroke="rgb(66, 66, 66)" stroke-width="1px" opacity="0.25"></line><line x1="0" y1="58.00000000000001" x2="278.875" y2="58.00000000000001" fill="rgb(0, 0, 0)" stroke="rgb(66, 66, 66)" stroke-width="1px" opacity="0.25"></line><line x1="0" y1="38.66666666666664" x2="278.875" y2="38.66666666666664" fill="rgb(0, 0, 0)" stroke="rgb(66, 66, 66)" stroke-width="1px" opacity="0.25"></line><line x1="0" y1="19.33333333333332" x2="278.875" y2="19.33333333333332" fill="rgb(0, 0, 0)" stroke="rgb(66, 66, 66)" stroke-width="1px" opacity="0.25"></line><line x1="0" y1="0" x2="278.875" y2="0" fill="rgb(0, 0, 0)" stroke="rgb(66, 66, 66)" stroke-width="1px" opacity="0.25"></line></g></g></g><g><g><line x1="0" y1="174" x2="278.875" y2="174" fill="rgb(0, 0, 0)" stroke="rgb(153, 153, 153)" stroke-width="1.5px"></line></g></g><g><g><line x1="27.887500000000003" y1="0" x2="27.887500000000003" y2="174" fill="rgb(0, 0, 0)" stroke="rgb(153, 153, 153)" stroke-width="1.5px"></line></g></g><g><g><g><g><g><path stroke="rgb(0, 153, 136)" stroke-width="2px" d="M27.887500000000003,17.368496994177484L29.281875,45.925200118372835L30.67625,62.61016469950581L32.070625,75.30117467294137L33.464999999999996,85.82075622468918L34.859375,94.40197589940524L36.253750000000004,101.62613437700716L37.648125,107.67438925803707L39.042500000000004,112.6082423786836L40.436875,116.6132657206263L41.83125,119.88785947834127L43.225625,122.59561396332762L44.62,124.8593890019123L46.014375,126.79884288182828L47.408750000000005,128.47667297723157L48.803124999999994,129.9509412030177L50.1975,131.2462343562883L51.591875,132.4432629544508L52.98625,133.52718253507086L54.380625,134.50297835144005L55.775000000000006,135.40025166276638L57.169374999999995,136.25058606476114L58.56375,137.02810098554855L59.958125,137.7725773115637L61.3525,138.45687742826362L62.746875,139.09317013957167L64.14125,139.69631297532106L65.535625,140.27388209292766L66.92999999999999,140.80064619234594L68.324375,141.3080936936894L69.71875,141.79417208532962L71.113125,142.25114479344387L72.50750000000001,142.6746925259105L73.901875,143.08994939987343L75.29625,143.4847390494929L76.69062500000001,143.84157170378776L78.08500000000001,144.2057030652067L79.47937499999999,144.53298377739327L80.87375,144.86314367077955L82.268125,145.17024388546395L83.6625,145.46246901158872L85.056875,145.74212475733137L86.45125,146.01075155613339L87.845625,146.26808746110396L89.24,146.52333964082865L90.634375,146.76117834553574L92.02875,146.98830032213655L93.423125,147.211423734019L94.81750000000001,147.4269191896089L96.21187499999999,147.63785875788508L97.60624999999999,147.82926775784097L99.000625,148.0311715281262L100.395,148.21491411484834L101.78937499999999,148.39555568292292L103.18375,148.5705806779538L104.578125,148.73957954750512L105.9725,148.9011081093911L107.36687500000001,149.06044479515336L108.76125,149.2046510416638L110.155625,149.3535655292891L111.55000000000001,149.5045242400779L112.94437500000001,149.64902686825278L114.33874999999999,149.7855671420746L115.733125,149.92172192186433L117.1275,150.0435614485561L118.521875,150.1732962826303L119.91625,150.29376068807113L121.310625,150.4138887729037L122.705,150.53142032459107L124.099375,150.63784236173666L125.49375,150.74217930710816L126.888125,150.8490312423895L128.2825,150.95315654138267L129.676875,151.053088347472L131.07125,151.1472990663989L132.465625,151.23810738238552L133.85999999999999,151.32665026732005L135.254375,151.41908071665597L136.64875,151.5068525020001L138.043125,151.58542846900528L139.4375,151.67248735584204L140.831875,151.75136805032125L142.22625,151.82169894250887L143.620625,151.89686999741787L145.01500000000001,151.9713037035282L146.409375,152.043252448524L147.80375,152.11303032653626L149.198125,152.18435488571978L150.5925,152.25132533965663L151.986875,152.3177402867366L153.38125000000002,152.37510003170308L154.77562500000002,152.43508378776474L156.17000000000002,152.49101412959433L157.56437499999998,152.55067248841647L158.95874999999998,152.605809086763L160.35312499999998,152.65727257184375L161.7475,152.7125993457567L163.141875,152.76263782007285L164.53625,152.81807396584423L165.930625,152.8633604930262L167.325,152.91583095509333L168.71937499999999,152.9573711436104L170.11375,152.99449367013244L171.508125,153.02571163288752L172.9025,153.05859982994397L174.296875,153.0922748209667L175.69125,153.1251312491277L177.085625,153.15789626322066L178.48,153.1872235424233L179.87437500000001,153.2211365572758L181.26875,153.24866282674554L182.663125,153.28018587072424L184.0575,153.30947810753025L185.451875,153.33997568693064L186.84625,153.36506593549035L188.24062500000002,153.39273622725676L189.63500000000002,153.42051914092463L191.02937500000002,153.4469810381923L192.42374999999998,153.4739107155041L193.81812499999998,153.50661852140644L195.21249999999998,153.5299415489798L196.606875,153.55013432308624L198.00125,153.5810924562092L199.395625,153.61132702284706L200.79,153.63576755158297L202.184375,153.65822972098306L203.57874999999999,153.68674311383157L204.973125,153.7121819665646L206.3675,153.7398410326609L207.761875,153.76627975720382L209.15625,153.7919877172602L210.550625,153.81939916120527L211.945,153.84336155239677L213.339375,153.8681318019863L214.73375000000001,153.89365180860176L216.128125,153.91886183438828L217.5225,153.94260891666886L218.916875,153.96715779239463L220.31125,153.9903461345108L221.705625,154.01352048465043L223.10000000000002,154.0399756970908L224.49437500000002,154.06625244277154L225.88875000000002,154.08369444861472L227.28312499999998,154.11108488770998L228.67749999999998,154.1350742882451L230.07187499999998,154.1568163617031L231.46625,154.18040854832984L232.860625,154.2005964464036L234.255,154.2295710412316L235.649375,154.25132827069277L237.04375,154.2713536447639L238.43812499999999,154.29347647585598L239.8325,154.3163802734502L241.226875,154.33650444615807L242.62125,154.35877082249877L244.015625,154.3752693792265L245.41,154.4006713088402L246.804375,154.4232004010309L248.19875,154.44517831347162L249.59312500000001,154.47066142464743L250.9875,154.4900810488367" style="fill: none;" fill="none"></path></g></g></g></g><g opacity="0.2"><g><g><g><path stroke="rgb(0, 153, 136)" stroke-width="2px" d="M27.887500000000003,17.368496994177484L29.281875,63.05922199289004L30.67625,78.62773069739342L32.070625,90.2258024017016L33.464999999999996,99.55512189865112L34.859375,106.27289194862048L36.253750000000004,111.9567965865135L37.648125,116.49280293782553L39.042500000000004,119.8847173800071L40.436875,122.56025862197082L41.83125,124.77004979054134L43.225625,126.64251021047433L44.62,128.24765994151434L46.014375,129.70422410964966L47.408750000000005,130.99144589404264L48.803124999999994,132.16130377352238L50.1975,133.18862596154213L51.591875,134.23850192626318L52.98625,135.15289678176245L54.380625,135.96658288439116L55.775000000000006,136.74611242115498L57.169374999999995,137.5260596871376L58.56375,138.19435801605383L59.958125,138.88928298155466L61.3525,139.48332273960114L62.746875,140.04760649303594L64.14125,140.601025685668L65.535625,141.14023488263288L66.92999999999999,141.59079185624918L68.324375,142.069264665246L69.71875,142.52328951160112L71.113125,142.93660376469293L72.50750000000001,143.31001407404742L73.901875,143.71283468107382L75.29625,144.0769235069553L76.69062500000001,144.37682067602873L78.08500000000001,144.7519001017014L79.47937499999999,145.023904842635L80.87375,145.35838350902L82.268125,145.6308942064643L83.6625,145.90080670018992L85.056875,146.16160837560892L86.45125,146.41369175414243L87.845625,146.6540913184484L89.24,146.90621791034937L90.634375,147.11793640255928L92.02875,147.32898328701654L93.423125,147.54610885183016L94.81750000000001,147.75016237298647L96.21187499999999,147.95426811029515L97.60624999999999,148.11638125777245L99.000625,148.3340271835526L100.395,148.49052799493074L101.78937499999999,148.66651803503433L103.18375,148.8331181704998L104.578125,148.9930778518319L105.9725,149.14340095221996L107.36687500000001,149.29944982379675L108.76125,149.4209604114294L110.155625,149.57693726072708L111.55000000000001,149.73096230626106L112.94437500000001,149.86578081051508L114.33874999999999,149.99037755280733L115.733125,150.12595409154892L117.1275,150.22632073859373L118.521875,150.36789853374162L119.91625,150.47445729623237L121.310625,150.59408090015253L122.705,150.70771765212217L124.099375,150.79747541745505L125.49375,150.89868472516537L126.888125,151.0093091453115L128.2825,151.10934448987246L129.676875,151.20298605660597L131.07125,151.28861514478922L132.465625,151.37431985636553L133.85999999999999,151.4594645947218L135.254375,151.5577263906598L136.64875,151.63851018001637L138.043125,151.70329241951308L139.4375,151.80307568609715L140.831875,151.86968909204006L142.22625,151.92719528079033L143.620625,152.00962657978138L145.01500000000001,152.08295426269373L146.409375,152.15117556601763L147.80375,152.2176971435547L149.198125,152.29134172449508L150.5925,152.35178102056184L151.986875,152.4173627073566L153.38125000000002,152.46113964915276L154.77562500000002,152.5250594218572L156.17000000000002,152.57490964233875L157.56437499999998,152.64016002664962L158.95874999999998,152.68851398428282L160.35312499999998,152.73446779946485L161.7475,152.79558950662613L163.141875,152.83769553154707L164.53625,152.90122818450132L165.930625,152.93129028379917L167.325,152.99453664819399L168.71937499999999,153.01968142638603L170.11375,153.0501774599155L171.508125,153.07253857702017L172.9025,153.10793212552866L174.296875,153.14278730750084L175.69125,153.1744158913692L177.085625,153.20704378436008L178.48,153.23121446122727L179.87437500000001,153.27200607955456L181.26875,153.2899522309502L182.663125,153.32747043669224L184.0575,153.35341646273932L185.451875,153.38572205603123L186.84625,153.4027013083299L188.24062500000002,153.43424166490635L189.63500000000002,153.46219351142645L191.02937500000002,153.48667388409376L192.42374999999998,153.51430523147187L193.81812499999998,153.5556802302599L195.21249999999998,153.5649260903398L196.606875,153.58042348424593L198.00125,153.62752965589365L199.395625,153.65667887280384L200.79,153.67242834468684L202.184375,153.6919229750832L203.57874999999999,153.72951320310435L204.973125,153.75034024566412L206.3675,153.78132963180542L207.761875,153.80593784401813L209.15625,153.83054965734482L210.550625,153.86051632712284L211.945,153.879305139184L213.339375,153.90528717637062L214.73375000000001,153.931931818525L216.128125,153.956676873068L217.5225,153.97822954008976L218.916875,154.00398110598326L220.31125,154.02512864768505L221.705625,154.0482820098599L223.10000000000002,154.07965851575136L224.49437500000002,154.10566756129265L225.88875000000002,154.1098574573795L227.28312499999998,154.15217054635286L228.67749999999998,154.17105838904777L230.07187499999998,154.18942947189012L231.46625,154.21579682826996L232.860625,154.23087829351425L234.255,154.2730329334736L235.649375,154.28396411488453L237.04375,154.30139170587063L238.43812499999999,154.32666072249413L239.8325,154.35073596984148L241.226875,154.3666907052199L242.62125,154.39217038700977L244.015625,154.40001721431813L245.41,154.43877420326075L246.804375,154.45699403931698L248.19875,154.47814518213272L249.59312500000001,154.5088860914111L250.9875,154.51921048512062" style="fill: none;" fill="none"></path></g></g></g></g></g></g><g transform="translate(51, 174)" clip-path="url(#clip_1)"><clipPath id="clip_1"><rect width="278" height="26"></rect></clipPath><g><g><line x1="0" y1="0" x2="0" y2="5" style="visibility: inherit;" fill="rgb(0, 0, 0)" stroke="rgb(204, 204, 204)" stroke-width="1px"></line><line x1="27.887500000000003" y1="0" x2="27.887500000000003" y2="5" style="visibility: inherit;" fill="rgb(0, 0, 0)" stroke="rgb(204, 204, 204)" stroke-width="1px"></line><line x1="55.775000000000006" y1="0" x2="55.775000000000006" y2="5" style="visibility: inherit;" fill="rgb(0, 0, 0)" stroke="rgb(204, 204, 204)" stroke-width="1px"></line><line x1="83.6625" y1="0" x2="83.6625" y2="5" style="visibility: inherit;" fill="rgb(0, 0, 0)" stroke="rgb(204, 204, 204)" stroke-width="1px"></line><line x1="111.55000000000001" y1="0" x2="111.55000000000001" y2="5" style="visibility: inherit;" fill="rgb(0, 0, 0)" stroke="rgb(204, 204, 204)" stroke-width="1px"></line><line x1="139.4375" y1="0" x2="139.4375" y2="5" style="visibility: inherit;" fill="rgb(0, 0, 0)" stroke="rgb(204, 204, 204)" stroke-width="1px"></line><line x1="167.325" y1="0" x2="167.325" y2="5" style="visibility: inherit;" fill="rgb(0, 0, 0)" stroke="rgb(204, 204, 204)" stroke-width="1px"></line><line x1="195.21249999999998" y1="0" x2="195.21249999999998" y2="5" style="visibility: inherit;" fill="rgb(0, 0, 0)" stroke="rgb(204, 204, 204)" stroke-width="1px"></line><line x1="223.10000000000002" y1="0" x2="223.10000000000002" y2="5" style="visibility: inherit;" fill="rgb(0, 0, 0)" stroke="rgb(204, 204, 204)" stroke-width="1px"></line><line x1="250.9875" y1="0" x2="250.9875" y2="5" style="visibility: inherit;" fill="rgb(0, 0, 0)" stroke="rgb(204, 204, 204)" stroke-width="1px"></line><line x1="278.875" y1="0" x2="278.875" y2="5" style="visibility: inherit;" fill="rgb(0, 0, 0)" stroke="rgb(204, 204, 204)" stroke-width="1px"></line></g><g transform="translate(0, 8)"><text x="0" y="0" dx="0em" dy="0.95em" style="text-anchor: middle; visibility: hidden; font-family: Roboto, sans-serif; font-size: 12px; font-weight: 200;" fill="rgb(33, 33, 33)" stroke="none" stroke-width="1px">-20</text><text x="27.887500000000003" y="0" dx="0em" dy="0.95em" style="text-anchor: middle; visibility: inherit; font-family: Roboto, sans-serif; font-size: 12px; font-weight: 200;" fill="rgb(33, 33, 33)" stroke="none" stroke-width="1px">0</text><text x="55.775000000000006" y="0" dx="0em" dy="0.95em" style="text-anchor: middle; visibility: inherit; font-family: Roboto, sans-serif; font-size: 12px; font-weight: 200;" fill="rgb(33, 33, 33)" stroke="none" stroke-width="1px">20</text><text x="83.6625" y="0" dx="0em" dy="0.95em" style="text-anchor: middle; visibility: inherit; font-family: Roboto, sans-serif; font-size: 12px; font-weight: 200;" fill="rgb(33, 33, 33)" stroke="none" stroke-width="1px">40</text><text x="111.55000000000001" y="0" dx="0em" dy="0.95em" style="text-anchor: middle; visibility: inherit; font-family: Roboto, sans-serif; font-size: 12px; font-weight: 200;" fill="rgb(33, 33, 33)" stroke="none" stroke-width="1px">60</text><text x="139.4375" y="0" dx="0em" dy="0.95em" style="text-anchor: middle; visibility: inherit; font-family: Roboto, sans-serif; font-size: 12px; font-weight: 200;" fill="rgb(33, 33, 33)" stroke="none" stroke-width="1px">80</text><text x="167.325" y="0" dx="0em" dy="0.95em" style="text-anchor: middle; visibility: inherit; font-family: Roboto, sans-serif; font-size: 12px; font-weight: 200;" fill="rgb(33, 33, 33)" stroke="none" stroke-width="1px">100</text><text x="195.21249999999998" y="0" dx="0em" dy="0.95em" style="text-anchor: middle; visibility: inherit; font-family: Roboto, sans-serif; font-size: 12px; font-weight: 200;" fill="rgb(33, 33, 33)" stroke="none" stroke-width="1px">120</text><text x="223.10000000000002" y="0" dx="0em" dy="0.95em" style="text-anchor: middle; visibility: inherit; font-family: Roboto, sans-serif; font-size: 12px; font-weight: 200;" fill="rgb(33, 33, 33)" stroke="none" stroke-width="1px">140</text><text x="250.9875" y="0" dx="0em" dy="0.95em" style="text-anchor: middle; visibility: inherit; font-family: Roboto, sans-serif; font-size: 12px; font-weight: 200;" fill="rgb(33, 33, 33)" stroke="none" stroke-width="1px">160</text><text x="278.875" y="0" dx="0em" dy="0.95em" style="text-anchor: middle; visibility: hidden; font-family: Roboto, sans-serif; font-size: 12px; font-weight: 200;" fill="rgb(33, 33, 33)" stroke="none" stroke-width="1px">180</text></g><line x1="0" y1="0" x2="278.875" y2="0" fill="rgb(0, 0, 0)" stroke="rgb(204, 204, 204)" stroke-width="1px"></line></g></g></g></g></svg>